<svg id="图层_1" data-name="图层 1" xmlns="http://www.w3.org/2000/svg" xmlns:xlink="http://www.w3.org/1999/xlink" viewBox="0 0 800 800"><defs><style>.cls-1{fill:none;}.cls-2{clip-path:url(#clip-path);}.cls-3{fill:rgb(255, 204, 0);}</style><clipPath id="clip-path"><rect class="cls-1" x="57.04" y="70.12" width="685.92" height="659.76"/></clipPath></defs><g class="cls-2"><path class="cls-3" d="M564.77,728.92c-13.65,0-23.89-3.41-37.54-10.24L411.17,657.24c-6.82-3.41-17.06-3.41-23.89,0l-116,61.44c-27.31,13.65-58,10.24-81.92-6.83s-34.14-47.78-30.72-75.09l20.48-129.71c0-6.82,0-17.06-6.83-20.48L80.08,394.41c-20.48-20.48-27.31-51.2-20.48-78.5,10.24-27.31,34.13-47.79,61.44-51.2l129.71-17.07c6.82,0,13.65-6.82,20.48-13.65l61.44-119.47c13.65-27.31,41-44.37,68.26-44.37,30.72,0,54.62,17.06,68.27,44.37l58,116.05c3.41,6.83,10.24,13.65,20.48,13.65l129.7,20.49c30.72,3.41,54.62,23.89,61.44,51.2,10.24,27.3,0,58-20.48,78.5l-92.16,92.16c-6.82,6.83-10.24,13.66-6.82,20.48l20.48,133.12c3.41,30.72-6.83,58-30.73,75.1-13.65,10.24-30.71,13.65-44.37,13.65Z"/></g></svg>
