<svg id="图层_1" data-name="图层 1" xmlns="http://www.w3.org/2000/svg" xmlns:xlink="http://www.w3.org/1999/xlink" viewBox="0 0 800 800"><defs><style>.cls-1{fill:none;}.cls-2{clip-path:url(#clip-path);}.cls-3{fill:#aaa;}</style><clipPath id="clip-path"><rect class="cls-1" x="57.04" y="70.12" width="685.92" height="659.76"/></clipPath></defs><g class="cls-2"><path class="cls-3" d="M564.77,728.92c-13.65,0-23.89-3.41-37.54-10.24L411.17,657.24c-6.82-3.41-17.06-3.41-23.89,0l-116,61.44c-27.31,13.65-58,10.24-81.92-6.83s-34.14-47.78-30.72-75.09l20.48-129.71c0-6.82,0-17.06-6.83-20.48L80.08,394.41c-20.48-20.48-27.31-51.2-20.48-78.5,10.24-27.31,34.13-47.79,61.44-51.2l129.71-17.07c6.82,0,13.65-6.82,20.48-13.65l61.44-119.47c13.65-27.31,41-44.37,68.26-44.37,30.72,0,54.62,17.06,68.27,44.37l58,116.05c3.41,6.83,10.24,13.65,20.48,13.65l129.7,20.49c30.72,3.41,54.62,23.89,61.44,51.2,10.24,27.3,0,58-20.48,78.5l-92.16,92.16c-6.82,6.83-10.24,13.66-6.82,20.48l20.48,133.12c3.41,30.72-6.83,58-30.73,75.1-13.65,10.24-30.71,13.65-44.37,13.65ZM400.93,124.76c-10.24,0-17.06,6.83-23.89,13.65L322.43,254.47c-13.66,23.89-34.14,41-61.45,44.37L134.69,315.91c-10.24,0-17.06,6.82-20.48,17.07s0,20.48,6.83,23.89L213.2,449c17.07,17.06,27.3,44.37,23.89,68.27L216.61,647c0,10.24,3.42,17.07,10.24,23.89,3.42,6.83,13.65,6.83,23.9,3.42L366.8,612.87c23.89-10.24,51.2-10.24,71.68,0l116,61.44c10.24,3.41,17.07,3.41,27.31-3.42,6.82-6.82,10.24-13.65,10.24-23.89L571.6,517.3c-3.41-23.9,3.41-51.21,23.89-68.27l92.16-92.16c6.83-6.83,10.24-17.07,6.83-23.89-3.41-10.25-10.24-17.07-20.48-17.07L540.88,298.84c-23.89-3.41-47.79-20.48-58-41l-58-116c-6.83-10.24-13.66-17.07-23.9-17.07Zm0,0"/></g></svg>
